<svg xmlns="http://www.w3.org/2000/svg" viewBox="0 0 21 22" width="21" height="22">
	<style>
		tspan { white-space:pre }
		.shp0 { fill: #00c6bf } 
	</style>
	<path id="Search Icon" class="shp0" d="M20.99 19.64L16.06 14.71C17.06 13.28 17.66 11.55 17.66 9.68C17.66 4.85 13.74 0.93 8.91 0.93C4.08 0.93 0.16 4.85 0.16 9.68C0.16 14.51 4.08 18.43 8.91 18.43C11.15 18.43 13.18 17.58 14.73 16.2L19.58 21.05L20.99 19.64ZM2.16 9.68C2.17 5.95 5.18 2.93 8.91 2.93C12.64 2.93 15.65 5.95 15.66 9.68C15.65 13.41 12.64 16.42 8.91 16.43C5.18 16.42 2.17 13.41 2.16 9.68Z" />
</svg>